<?xml version="1.0" ?><!DOCTYPE svg  PUBLIC '-//W3C//DTD SVG 1.1//EN'  'http://www.w3.org/Graphics/SVG/1.1/DTD/svg11.dtd'><svg height="100%" style="fill-rule:evenodd;clip-rule:evenodd;stroke-linejoin:round;stroke-miterlimit:2;" version="1.1" viewBox="0 0 32 32" width="100%" xml:space="preserve" xmlns="http://www.w3.org/2000/svg" xmlns:serif="http://www.serif.com/" xmlns:xlink="http://www.w3.org/1999/xlink">
    <path fill="#0000ff" d="M29,3.5c0,-0.41 -0.25,-0.779 -0.632,-0.93c-0.381,-0.151 -0.816,-0.054 -1.097,0.245l-23,24.487c-0.273,0.291 -0.347,0.716 -0.189,1.082c0.159,0.366 0.519,0.603 0.918,0.603l23,0c0.552,0 1,-0.448 1,-1l0,-24.487Zm-4,9.478c0,-0.413 -0.254,-0.784 -0.64,-0.933c-0.386,-0.149 -0.824,-0.045 -1.101,0.262l-9.986,11.027c-0.266,0.294 -0.334,0.716 -0.173,1.077c0.16,0.362 0.518,0.595 0.914,0.595l9.986,-0c0.552,-0 1,-0.448 1,-1l0,-11.028Z"/></svg>